<?xml version="1.0" encoding="UTF-8"?>
<svg class="home-kv__logo-svg" width="93.29" height="38" version="1.1" viewBox="0 0 93.29 38" xmlns="http://www.w3.org/2000/svg">
 <defs>
  <mask id="logo-mask">
   <g class="home-kv__logo-svg-group">
    <path class="home-kv__logo-path" d="m94.2 80.1-15.8 11.2c-6.9-12.7-16.8-19.2-29-19.2-11.5 0-20.8 5.3-20.8 16.1 0 9.8 8.9 14.9 28 18.7 10.3 2.2 16.8 3.6 24.7 7.2 11.3 4.8 18.7 12.9 18.7 25.6 0 12-4.6 21.6-13.4 28.5-8.9 6.9-19.9 10.3-33.1 10.3-24.9 0-45-12.7-52.5-35l19.2-7.2c5.5 15.1 17 24 33.3 24 14.6 0 25.6-6.5 25.6-18.7 0-9.6-9.1-12.9-31.1-17.7-24.7-5-39-13.7-39-35 0-10.5 4.1-18.9 12-25.4s17.7-9.6 29.2-9.6c19.8 0 34.4 8.7 44 26.2z"/>
    <path class="home-kv__logo-path" d="m230 176.6h-16.3l-2.9-17c-7.7 11.3-24.7 18.9-42.6 18.9-21.3 0-37.4-12.9-37.4-36.7 0-26.1 20.4-39.5 54.6-39.5h24.4v-5.3c0-17.5-11.5-24.9-27.8-24.9-13.7 0-24.7 8.4-28.5 20.6l-17.7-4.7c5.5-20.8 24-34 46.2-34 29.7 0 47.9 14.6 47.9 46.5v76.1zm-58.7-16.3c9.6 0 18.4-3.1 26.4-9.1 8.1-6.2 12.2-15.6 12.2-27.8v-3.8h-26.4c-20.4 0-32.1 8.6-32.1 22.3 0 11.5 7.7 18.4 19.9 18.4z"/>
    <path class="home-kv__logo-path" d="m271.6 73.6v-17.7h57v103h41.7v17.7h-103.5v-17.7h41.7v-85.3z"/>
    <path class="home-kv__logo-path" d="m333.6 18c0 9.1-7.4 16.5-16.5 16.5s-16.5-7.4-16.5-16.5 7.4-16.5 16.5-16.5 16.5 7.4 16.5 16.5z"/>
    <path class="home-kv__logo-path" d="m478.9 131.1c0 19.4-8.4 29.2-25.4 29.2s-25.4-9.8-25.4-29.2v-122.2h-70.9v18.2h50.8v104c0 29.9 17.5 47.4 45.5 47.4s45.5-17.5 45.5-47.4z"/>
   </g>
  </mask>
 </defs>
 <path class="home-kv__logo-clip" transform="translate(-54.774 78.051)" d="m0 0h500v180h-500z" mask="url(#logo-mask)" data-original="M0,180h13.9h69.4h83.3H250h83.3h83.3h69.4H500l0,0h-13.9c-13.9,0-41.7,0-69.4,0 c-27.8,0-55.6,0-83.3,0c-27.8,0-55.6,0-83.3,0s-55.6,0-83.3,0s-55.6,0-83.3,0s-55.6,0-69.4,0H0L0,180z"/>
 <g transform="matrix(.64956 0 0 .64956 -4.5389 83.671)" fill="#8080ff" stroke-width="1.5395">
  <path d="m18.519-128.81q5.3438 0 8.1562 2.8125 3.0938 3.0938 3.0938 7.875v12.656q0 2.25-1.4062 3.6562-0.84375 0.84375-1.9688 1.6875 1.125 0.84375 2.25 1.9688 1.4062 1.4062 1.4062 3.375v13.5q0 4.7812-3.0938 7.875t-8.4375 3.0938-8.4375-3.0938-3.0938-7.875v-4.7812h7.3125v4.7812q0 1.9688 1.125 3.0938t3.0938 1.125 3.0938-1.125 1.125-3.0938v-11.531q0-1.6875-1.125-2.8125-0.84375-0.84375-2.25-0.84375h-3.0938v-6.75h2.8125q1.6875 0 2.5312-0.84375t0.84375-2.8125v-11.25q0-1.9688-0.84375-2.8125-1.125-1.125-3.0938-1.125-1.6875 0-2.8125 1.125t-1.125 2.8125v5.0625h-7.3125v-5.0625q0-4.7812 3.0938-7.875 2.8125-2.8125 8.1562-2.8125z"/>
  <path d="m56.237-128.81q7.0312 0 11.531 4.5 3.9375 3.9375 3.9375 9.5625v4.5h-7.875v-2.8125q0-4.2188-1.9688-6.1875t-5.0625-1.9688q-3.375 0-5.3438 1.9688-2.25 2.25-2.25 6.1875v27q0 4.2188 2.25 6.4688 1.9688 1.9688 5.3438 1.9688t5.3438-1.9688q1.6875-1.6875 1.6875-6.4688v-4.7812h7.875v4.7812q0 7.875-3.9375 11.812t-10.688 3.9375q-8.1562 0-11.812-3.6562-3.9375-3.9375-3.9375-12.094v-28.688q0-5.625 3.9375-9.5625 4.5-4.5 10.969-4.5z"/>
  <path d="m113.81-70.875h-8.4375l-2.5312-12.656h-11.25l-2.5312 12.656h-8.4375l12.094-57.375h9zm-20.812-19.969h8.4375l-4.2188-21.656z"/>
  <path d="m133.17-128.25q7.3125 0 12.656 5.3438 4.7812 4.7812 4.7812 12.656v19.688q0 9.5625-4.7812 14.344-5.3438 5.3438-15.188 5.3438h-10.406v-57.375zm-5.0625 50.062h4.2188q5.0625 0 7.5938-2.5312 2.8125-2.8125 2.8125-9v-20.531q0-5.0625-2.8125-7.875t-7.3125-2.8125h-4.5z"/>
 </g>
</svg>
