<?xml version="1.0" encoding="UTF-8"?>
<svg class="home-kv__logo-svg" width="93.486" height="38" version="1.1" viewBox="0 0 93.486 38" xmlns="http://www.w3.org/2000/svg">
 <defs>
  <mask id="logo-mask">
   <g class="home-kv__logo-svg-group">
    <path class="home-kv__logo-path" d="m94.2 80.1-15.8 11.2c-6.9-12.7-16.8-19.2-29-19.2-11.5 0-20.8 5.3-20.8 16.1 0 9.8 8.9 14.9 28 18.7 10.3 2.2 16.8 3.6 24.7 7.2 11.3 4.8 18.7 12.9 18.7 25.6 0 12-4.6 21.6-13.4 28.5-8.9 6.9-19.9 10.3-33.1 10.3-24.9 0-45-12.7-52.5-35l19.2-7.2c5.5 15.1 17 24 33.3 24 14.6 0 25.6-6.5 25.6-18.7 0-9.6-9.1-12.9-31.1-17.7-24.7-5-39-13.7-39-35 0-10.5 4.1-18.9 12-25.4s17.7-9.6 29.2-9.6c19.8 0 34.4 8.7 44 26.2z"/>
    <path class="home-kv__logo-path" d="m230 176.6h-16.3l-2.9-17c-7.7 11.3-24.7 18.9-42.6 18.9-21.3 0-37.4-12.9-37.4-36.7 0-26.1 20.4-39.5 54.6-39.5h24.4v-5.3c0-17.5-11.5-24.9-27.8-24.9-13.7 0-24.7 8.4-28.5 20.6l-17.7-4.7c5.5-20.8 24-34 46.2-34 29.7 0 47.9 14.6 47.9 46.5v76.1zm-58.7-16.3c9.6 0 18.4-3.1 26.4-9.1 8.1-6.2 12.2-15.6 12.2-27.8v-3.8h-26.4c-20.4 0-32.1 8.6-32.1 22.3 0 11.5 7.7 18.4 19.9 18.4z"/>
    <path class="home-kv__logo-path" d="m271.6 73.6v-17.7h57v103h41.7v17.7h-103.5v-17.7h41.7v-85.3z"/>
    <path class="home-kv__logo-path" d="m333.6 18c0 9.1-7.4 16.5-16.5 16.5s-16.5-7.4-16.5-16.5 7.4-16.5 16.5-16.5 16.5 7.4 16.5 16.5z"/>
    <path class="home-kv__logo-path" d="m478.9 131.1c0 19.4-8.4 29.2-25.4 29.2s-25.4-9.8-25.4-29.2v-122.2h-70.9v18.2h50.8v104c0 29.9 17.5 47.4 45.5 47.4s45.5-17.5 45.5-47.4z"/>
   </g>
  </mask>
 </defs>
 <path class="home-kv__logo-clip" transform="translate(19.272 75.812)" d="m0 0h500v180h-500z" mask="url(#logo-mask)" data-original="M0,180h13.9h69.4h83.3H250h83.3h83.3h69.4H500l0,0h-13.9c-13.9,0-41.7,0-69.4,0 c-27.8,0-55.6,0-83.3,0c-27.8,0-55.6,0-83.3,0s-55.6,0-83.3,0s-55.6,0-83.3,0s-55.6,0-69.4,0H0L0,180z"/>
 <g transform="matrix(1.6321 0 0 2.9231 23.113 -425.42)" fill="#8080ff" stroke-width=".45781" style="shape-inside:url(#rect105050);white-space:pre" aria-label="DESIGN">
  <g fill="#206ACC" stroke-width=".45781">
   <path d="m-14.161 146.19v12.235c1.6354-0.0752 3.3049 0.17522 4.9155-0.17927 1.598-0.38734 2.7408-1.8303 2.9935-3.4205 0.39212-2.062 0.40085-4.2477-0.18912-6.2732-0.48736-1.7864-2.3068-2.9417-4.1159-2.8917-1.2012-6e-3 -2.4027-8.3e-4 -3.6039-3e-3v0.53243zm3.3738 1.9092c1.1067-0.024 1.9118 0.99274 1.9898 2.0326 0.19861 1.5854 0.28536 3.2781-0.28859 4.7975-0.4255 0.9142-1.5134 1.1691-2.4355 1.0541-0.19323-0.3852-0.02837-1.1285-0.08318-1.6521v-6.232h0.81746z"/>
   <path d="m-3.4415 146.19v12.235h7.7766v-2.4416h-5.2203v-3.1228h4.4172v-2.4416h-4.4172v-2.3197h4.9334v-2.4416h-7.4898v0.53243z"/>
   <path d="m9.4909 145.62c-2.0848 0.0799-3.9013 2.2226-3.3405 4.3012 0.31571 1.6536 2.0442 2.3192 3.3511 3.0457 0.77539 0.46118 1.9218 1.118 1.6171 2.1992-0.21936 1.0976-2.0782 0.99439-2.3538-0.0305-0.25115-0.66081-0.19811-1.3793-0.20974-2.0723h-2.6818c-0.033293 1.7387 0.22331 3.822 1.8417 4.826 1.8753 1.1568 4.8416 0.65539 5.8008-1.4667 0.7451-1.6487 0.16601-3.6991-1.2623-4.7863-1.0248-0.97751-2.6201-1.1916-3.4437-2.3878-0.33533-0.79282 0.78494-1.3219 1.4252-1.0093 0.87842 0.42599 0.84746 1.5547 0.90888 2.3896h2.551c-0.02519-1.625-0.26006-3.5698-1.7783-4.505-0.72134-0.44107-1.5939-0.56038-2.4255-0.50375z"/>
   <path d="m17.233 146.19v12.235h2.5564v-12.767h-2.5564v0.53243z"/>
   <path d="m27.308 145.56c-2.1314 0.18281-3.7038 2.1014-4.0514 4.1196-0.37426 2.2001-0.36318 4.6224 0.73141 6.6275 0.94789 1.7616 3.2871 2.8411 5.1504 1.8626 0.67031-0.64562 0.40727 0.1811 0.90638 0.25457h1.9745v-7.6619h-5.0804v2.4416h2.5241c0.07431 1.0241-0.10239 2.3402-1.2387 2.7051-1.222 0.37615-2.1935-0.91596-2.3338-2.0021-0.26441-1.5994-0.34087-3.3633 0.38395-4.8554 0.42574-0.91128 1.8218-1.348 2.4715-0.4261 0.36429 0.47283 0.29129 1.1225 0.43024 1.6779 0.95543 0.0307 1.911 0.0585 2.8665 0.086-0.10181-1.3442-0.44409-2.7635-1.5166-3.675-0.83158-0.85027-2.0362-1.2753-3.2179-1.1545z"/>
   <path d="m35.111 146.19v12.235h2.5564v-6.5361c1.0294 2.1788 2.0602 4.3569 3.0888 6.5361h2.361v-12.767h-2.5564v6.5361c-1.0294-2.1788-2.0602-4.3569-3.0888-6.5361h-2.361v0.53243z"/>
  </g>
 </g>
</svg>
