<svg class="home-kv__logo-svg" width="93.486" height="38" xmlns="http://www.w3.org/2000/svg"><defs><mask id="a"><g class="home-kv__logo-svg-group"><path class="home-kv__logo-path" d="M94.2 80.1 78.4 91.3c-6.9-12.7-16.8-19.2-29-19.2-11.5 0-20.8 5.3-20.8 16.1 0 9.8 8.9 14.9 28 18.7 10.3 2.2 16.8 3.6 24.7 7.2 11.3 4.8 18.7 12.9 18.7 25.6 0 12-4.6 21.6-13.4 28.5-8.9 6.9-19.9 10.3-33.1 10.3-24.9 0-45-12.7-52.5-35l19.2-7.2c5.5 15.1 17 24 33.3 24 14.6 0 25.6-6.5 25.6-18.7 0-9.6-9.1-12.9-31.1-17.7-24.7-5-39-13.7-39-35C9 78.4 13.1 70 21 63.5s17.7-9.6 29.2-9.6c19.8 0 34.4 8.7 44 26.2zM230 176.6h-16.3l-2.9-17c-7.7 11.3-24.7 18.9-42.6 18.9-21.3 0-37.4-12.9-37.4-36.7 0-26.1 20.4-39.5 54.6-39.5h24.4V97c0-17.5-11.5-24.9-27.8-24.9-13.7 0-24.7 8.4-28.5 20.6L135.8 88c5.5-20.8 24-34 46.2-34 29.7 0 47.9 14.6 47.9 46.5v76.1zm-58.7-16.3c9.6 0 18.4-3.1 26.4-9.1 8.1-6.2 12.2-15.6 12.2-27.8v-3.8h-26.4c-20.4 0-32.1 8.6-32.1 22.3 0 11.5 7.7 18.4 19.9 18.4zM271.6 73.6V55.9h57v103h41.7v17.7H266.8v-17.7h41.7V73.6zM333.6 18c0 9.1-7.4 16.5-16.5 16.5s-16.5-7.4-16.5-16.5S308 1.5 317.1 1.5s16.5 7.4 16.5 16.5zM478.9 131.1c0 19.4-8.4 29.2-25.4 29.2s-25.4-9.8-25.4-29.2V8.9h-70.9v18.2H408v104c0 29.9 17.5 47.4 45.5 47.4S499 161 499 131.1z"/></g></mask></defs><path class="home-kv__logo-clip" transform="translate(19.272 75.812)" d="M0 0h500v180H0z" mask="url(#a)" data-original="M0,180h13.9h69.4h83.3H250h83.3h83.3h69.4H500l0,0h-13.9c-13.9,0-41.7,0-69.4,0 c-27.8,0-55.6,0-83.3,0c-27.8,0-55.6,0-83.3,0s-55.6,0-83.3,0s-55.6,0-83.3,0s-55.6,0-69.4,0H0L0,180z"/><g fill="#206ACC" transform="matrix(1.6321 0 0 2.9231 23.113 -425.42)" stroke-width=".458" style="shape-inside:url(#rect105050);white-space:pre" aria-label="DESIGN"><path d="M-14.161 146.19v12.235c1.635-.075 3.305.175 4.915-.18 1.599-.387 2.741-1.83 2.994-3.42.392-2.062.4-4.247-.19-6.273-.486-1.786-2.306-2.942-4.115-2.892-1.201-.006-2.403 0-3.604-.003v.533zm3.374 1.91c1.107-.025 1.912.992 1.99 2.032.198 1.585.285 3.278-.289 4.797-.425.915-1.513 1.17-2.435 1.054-.194-.385-.029-1.128-.084-1.652V148.1h.818zM-3.442 146.19v12.235h7.777v-2.442h-5.22v-3.122h4.417v-2.442H-.885v-2.32h4.933v-2.441h-7.49v.532zM9.49 145.62c-2.084.08-3.9 2.223-3.34 4.301.316 1.654 2.045 2.32 3.351 3.046.776.461 1.922 1.118 1.618 2.2-.22 1.097-2.079.993-2.354-.031-.251-.661-.198-1.38-.21-2.073H5.873c-.033 1.739.224 3.822 1.842 4.826 1.875 1.157 4.842.656 5.8-1.466.746-1.65.167-3.7-1.262-4.787-1.024-.977-2.62-1.191-3.443-2.388-.336-.792.785-1.321 1.425-1.009.878.426.847 1.555.909 2.39h2.55c-.024-1.625-.26-3.57-1.777-4.505-.722-.441-1.594-.56-2.426-.504zM17.233 146.19v12.235h2.556v-12.767h-2.556v.532zM27.308 145.56c-2.131.183-3.704 2.101-4.051 4.12-.375 2.2-.364 4.622.731 6.627.948 1.762 3.287 2.841 5.15 1.863.67-.646.408.18.907.254h1.974v-7.662h-5.08v2.442h2.524c.074 1.024-.102 2.34-1.239 2.705-1.222.376-2.193-.916-2.334-2.002-.264-1.6-.34-3.363.384-4.855.426-.912 1.822-1.348 2.472-.427.364.473.291 1.123.43 1.678.956.031 1.911.059 2.867.086-.102-1.344-.444-2.763-1.517-3.675a3.968 3.968 0 0 0-3.218-1.154zM35.111 146.19v12.235h2.556v-6.536l3.09 6.536h2.36v-12.767h-2.556v6.536l-3.089-6.536h-2.361v.532z"/></g></svg>