<svg width="49.951" height="90" xml:space="preserve" xmlns="http://www.w3.org/2000/svg"><defs><radialGradient id="a" cx="208.17" cy="-31.382" r="39.511" gradientTransform="matrix(1.1136 0 0 .97037 -6.62 -6.231)" gradientUnits="userSpaceOnUse"><stop stop-color="#ff0" offset="0"/><stop stop-color="#ff0" stop-opacity="0" offset="1"/></radialGradient></defs><path d="M43.215 6.12c0-3.32-2.701-6.02-6.021-6.02H26.04v.011C13.942.732 4.244 10.587 3.873 22.748a3.261 3.261 0 0 0-2.242 3.093v41.752h-.173a.888.888 0 0 0 0 1.777h.107L.108 89.9h9.56L8.211 69.37h.107a.888.888 0 0 0 0-1.777h-.173V25.841c0-.871-.338-1.69-.953-2.304a3.23 3.23 0 0 0-1.538-.86c.406-11.17 9.328-20.206 20.454-20.79a6.03 6.03 0 0 0 5.953 5.122h2.326a4.466 4.466 0 0 0 4.369 3.57 4.466 4.466 0 0 0 4.37-3.57zM7.761 88.124H2.015l1.332-18.754h3.082zM6.369 25.84v41.752H3.408V25.84a1.482 1.482 0 0 1 2.528-1.048c.279.279.433.651.433 1.048zM27.91 1.876h9.283a4.251 4.251 0 0 1 4.15 3.356h-9.283a4.251 4.251 0 0 1-4.15-3.356zm10.846 6.926c-1.167 0-4.37-1.793-2.528-1.793h5.055a2.684 2.684 0 0 1-2.527 1.793z" fill="#ececec" stroke="#000" stroke-width=".2"/><path transform="matrix(.27815 0 0 -.9265 -18.942 11.626)" d="m207.43 3.048-38.776-68.86 79.022.848z" fill="url(#a)" style="paint-order:markers fill stroke"/><path d="M2.68 85.884c.094-.863.324-3.948.51-6.855.186-2.907.425-6.14.532-7.186.187-1.828.23-1.9 1.147-1.9 1.185 0 1.162-.104 1.612 7.269.194 3.18.444 6.785.556 8.011l.203 2.23H2.507z" fill="#ececec" style="paint-order:markers fill stroke"/><path d="M3.856 46.405c.003-11.311.132-20.766.288-21.011.155-.245.562-.392.903-.326.6.115.624.862.706 21.011l.085 20.891H3.851z" fill="#e6e6e6" style="paint-order:markers fill stroke"/><path d="M36.935 9.854c-3.211-2.48-3.316-3.554 1.254-3.572 3.564-.014 4.184.107 4.045.787-.199.964-2.435 3.07-3.241 3.052-.315-.007-1.162.424-2.058-.267z" fill="#ff0" stroke="#000" stroke-linejoin="round" stroke-width=".2" style="paint-order:markers fill stroke"/></svg>