<?xml version="1.0" encoding="UTF-8"?>
<!-- Generator: Adobe Illustrator 18.0.0, SVG Export Plug-In . SVG Version: 6.00 Build 0)  -->
<svg width="49.951" height="90" version="1.1" viewBox="0 0 49.951 90" xml:space="preserve" xmlns="http://www.w3.org/2000/svg" xmlns:xlink="http://www.w3.org/1999/xlink"><defs><radialGradient id="radialGradient2037" cx="208.17" cy="-31.382" r="39.511" gradientTransform="matrix(1.1136 0 0 .97037 -6.6206 -6.2312)" gradientUnits="userSpaceOnUse"><stop stop-color="#ff0" offset="0"/><stop stop-color="#ff0" stop-opacity="0" offset="1"/></radialGradient></defs>
















<path d="m43.215 6.1209c0-3.32-2.7011-6.0209-6.021-6.0209h-11.154v0.011055c-12.098 0.62104-21.796 10.476-22.167 22.637-1.3001 0.42778-2.2422 1.6517-2.2422 3.0932v41.752h-0.17293c-0.49056 0-0.88834 0.39777-0.88834 0.88833s0.39778 0.88833 0.88834 0.88833h0.10759l-1.4579 20.53h9.5609l-1.4579-20.53h0.10759c0.49056 0 0.88834-0.39777 0.88834-0.88833s-0.39778-0.88833-0.88834-0.88833h-0.17293v-41.752c0-0.87135-0.33856-1.6896-0.95309-2.3041-0.42995-0.42995-0.96078-0.72132-1.5386-0.85951 0.40607-11.171 9.3283-20.207 20.454-20.791 0.43489 2.8952 2.9388 5.1223 5.9534 5.1223h2.3257c0.41298 2.0343 2.2151 3.5701 4.3694 3.5701 2.1543 0 3.9565-1.5358 4.3694-3.5701zm-35.454 82.002h-5.746l1.3315-18.754h3.0829zm-1.3923-62.282v41.752h-2.9611v-41.752c0-0.81648 0.66408-1.4806 1.4806-1.4806 0.39679 0 0.7689 0.15358 1.048 0.43272 0.27874 0.27894 0.43252 0.65105 0.43252 1.0478zm21.542-23.965h9.2833c2.0359 0 3.7413 1.4405 4.1507 3.3559h-9.2833c-2.0357 0-3.7413-1.4405-4.1507-3.3559zm10.846 6.926c-1.1671 0-4.3694-1.7934-2.5274-1.7934h5.0546c-0.36758 1.0427-1.3601 1.7934-2.5272 1.7934z" fill="#ececec" stroke="#000" stroke-width=".2"/><path transform="matrix(.27815 0 0 -.9265 -18.942 11.626)" d="m207.43 3.0476-38.776-68.86 79.022 0.84878z" fill="url(#radialGradient2037)" stop-color="#000000" stroke-dasharray="2.75778, 2.75778" stroke-linejoin="round" stroke-width="1.3789" style="paint-order:markers fill stroke"/><path d="m2.6793 85.884c0.094712-0.86308 0.32436-3.9479 0.51034-6.8551 0.18597-2.9072 0.42553-6.1407 0.53235-7.1855 0.18694-1.8284 0.22995-1.8996 1.1466-1.8996 1.1853 0 1.162-0.10497 1.6121 7.2681 0.19413 3.1798 0.44447 6.7849 0.55633 8.0114l0.20337 2.23h-4.7333z" fill="#ececec" stop-color="#000000" style="paint-order:markers fill stroke"/><path d="m3.8564 46.405c0.00278-11.311 0.1321-20.766 0.28736-21.011 0.15527-0.245 0.56182-0.39165 0.90346-0.32587 0.59907 0.11534 0.62418 0.86226 0.70621 21.011l0.085057 20.891h-1.9871z" fill="#e6e6e6" stop-color="#000000" style="paint-order:markers fill stroke"/><path d="m36.935 9.8536c-3.2114-2.4788-3.3155-3.5533 1.2539-3.5716 3.5638-0.014243 4.1845 0.10653 4.0447 0.78686-0.19821 0.96424-2.4347 3.0707-3.2406 3.0522-0.31499-0.0073-1.1623 0.42383-2.0579-0.26749z" fill="#ff0" stop-color="#000000" stroke="#000" stroke-linejoin="round" stroke-width=".2" style="paint-order:markers fill stroke"/></svg>
