<svg class="home-kv__logo-svg" width="67.231" height="38" xmlns="http://www.w3.org/2000/svg"><defs><mask id="a"><g class="home-kv__logo-svg-group"><path class="home-kv__logo-path" d="M94.2 80.1 78.4 91.3c-6.9-12.7-16.8-19.2-29-19.2-11.5 0-20.8 5.3-20.8 16.1 0 9.8 8.9 14.9 28 18.7 10.3 2.2 16.8 3.6 24.7 7.2 11.3 4.8 18.7 12.9 18.7 25.6 0 12-4.6 21.6-13.4 28.5-8.9 6.9-19.9 10.3-33.1 10.3-24.9 0-45-12.7-52.5-35l19.2-7.2c5.5 15.1 17 24 33.3 24 14.6 0 25.6-6.5 25.6-18.7 0-9.6-9.1-12.9-31.1-17.7-24.7-5-39-13.7-39-35C9 78.4 13.1 70 21 63.5s17.7-9.6 29.2-9.6c19.8 0 34.4 8.7 44 26.2zM230 176.6h-16.3l-2.9-17c-7.7 11.3-24.7 18.9-42.6 18.9-21.3 0-37.4-12.9-37.4-36.7 0-26.1 20.4-39.5 54.6-39.5h24.4V97c0-17.5-11.5-24.9-27.8-24.9-13.7 0-24.7 8.4-28.5 20.6L135.8 88c5.5-20.8 24-34 46.2-34 29.7 0 47.9 14.6 47.9 46.5v76.1zm-58.7-16.3c9.6 0 18.4-3.1 26.4-9.1 8.1-6.2 12.2-15.6 12.2-27.8v-3.8h-26.4c-20.4 0-32.1 8.6-32.1 22.3 0 11.5 7.7 18.4 19.9 18.4zM271.6 73.6V55.9h57v103h41.7v17.7H266.8v-17.7h41.7V73.6zM333.6 18c0 9.1-7.4 16.5-16.5 16.5s-16.5-7.4-16.5-16.5S308 1.5 317.1 1.5s16.5 7.4 16.5 16.5zM478.9 131.1c0 19.4-8.4 29.2-25.4 29.2s-25.4-9.8-25.4-29.2V8.9h-70.9v18.2H408v104c0 29.9 17.5 47.4 45.5 47.4S499 161 499 131.1z"/></g></mask></defs><path class="home-kv__logo-clip" transform="translate(22.996 189.62)" d="M0 0h500v180H0z" mask="url(#a)" data-original="M0,180h13.9h69.4h83.3H250h83.3h83.3h69.4H500l0,0h-13.9c-13.9,0-41.7,0-69.4,0 c-27.8,0-55.6,0-83.3,0c-27.8,0-55.6,0-83.3,0s-55.6,0-83.3,0s-55.6,0-83.3,0s-55.6,0-69.4,0H0L0,180z"/><g aria-label="QMS" fill="#59f"><path d="M13.835 5.165q-1.66-1.66-3.505-1.66-2.029 0-3.69 1.66-2.397 2.398-2.397 12.913 0 10.33 2.398 12.728 1.66 1.66 3.505 1.66 2.029 0 2.951-.922l-2.951-5.719 2.582-3.135 2.583 4.98q.922-3.32.922-9.592 0-10.515-2.398-12.913zm2.582-2.767q4.059 4.058 4.059 15.68 0 10.146-2.767 13.835l1.476 2.951L16.233 38l-1.66-3.32q-1.845 1.291-4.427 1.291-3.69 0-6.088-2.398Q0 29.515 0 18.078q0-11.62 4.058-15.68Q6.456 0 10.33 0q3.69 0 6.087 2.398zM27.57 9.038V35.97h-3.69V-.001h5.904l3.873 23.427h.37L37.9-.001h5.903V35.97h-3.69V9.038h-.368L35.318 35.97h-2.952L27.94 9.038zM55.241 13.466q3.874 3.32 7.748 5.534 4.242 2.398 4.242 7.01 0 4.611-2.767 7.378-2.582 2.583-7.194 2.583-4.427 0-6.825-2.398-2.952-2.952-2.952-7.01v-1.845h4.243v1.66q0 2.952 1.476 4.428 1.476 1.475 3.69 1.475 2.95 0 4.426-1.475 1.66-1.66 1.66-4.243 0-2.767-2.582-4.427-4.612-2.952-8.67-6.272-2.951-2.398-3.136-6.456-.184-4.059 2.767-6.825Q54.134 0 57.455 0q4.058 0 6.271 2.214Q66.493 4.98 66.31 9.96h-4.243q.37-3.136-1.475-4.98-1.292-1.292-3.136-1.292t-3.136 1.292q-1.66 1.66-1.66 3.873 0 2.399 2.582 4.612z"/></g></svg>