<?xml version="1.0" encoding="UTF-8"?>
<svg class="home-kv__logo-svg" width="67.231" height="38" version="1.1" viewBox="0 0 67.231 38" xmlns="http://www.w3.org/2000/svg">
 <defs>
  <mask id="logo-mask">
   <g class="home-kv__logo-svg-group">
    <path class="home-kv__logo-path" d="m94.2 80.1-15.8 11.2c-6.9-12.7-16.8-19.2-29-19.2-11.5 0-20.8 5.3-20.8 16.1 0 9.8 8.9 14.9 28 18.7 10.3 2.2 16.8 3.6 24.7 7.2 11.3 4.8 18.7 12.9 18.7 25.6 0 12-4.6 21.6-13.4 28.5-8.9 6.9-19.9 10.3-33.1 10.3-24.9 0-45-12.7-52.5-35l19.2-7.2c5.5 15.1 17 24 33.3 24 14.6 0 25.6-6.5 25.6-18.7 0-9.6-9.1-12.9-31.1-17.7-24.7-5-39-13.7-39-35 0-10.5 4.1-18.9 12-25.4s17.7-9.6 29.2-9.6c19.8 0 34.4 8.7 44 26.2z"/>
    <path class="home-kv__logo-path" d="m230 176.6h-16.3l-2.9-17c-7.7 11.3-24.7 18.9-42.6 18.9-21.3 0-37.4-12.9-37.4-36.7 0-26.1 20.4-39.5 54.6-39.5h24.4v-5.3c0-17.5-11.5-24.9-27.8-24.9-13.7 0-24.7 8.4-28.5 20.6l-17.7-4.7c5.5-20.8 24-34 46.2-34 29.7 0 47.9 14.6 47.9 46.5v76.1zm-58.7-16.3c9.6 0 18.4-3.1 26.4-9.1 8.1-6.2 12.2-15.6 12.2-27.8v-3.8h-26.4c-20.4 0-32.1 8.6-32.1 22.3 0 11.5 7.7 18.4 19.9 18.4z"/>
    <path class="home-kv__logo-path" d="m271.6 73.6v-17.7h57v103h41.7v17.7h-103.5v-17.7h41.7v-85.3z"/>
    <path class="home-kv__logo-path" d="m333.6 18c0 9.1-7.4 16.5-16.5 16.5s-16.5-7.4-16.5-16.5 7.4-16.5 16.5-16.5 16.5 7.4 16.5 16.5z"/>
    <path class="home-kv__logo-path" d="m478.9 131.1c0 19.4-8.4 29.2-25.4 29.2s-25.4-9.8-25.4-29.2v-122.2h-70.9v18.2h50.8v104c0 29.9 17.5 47.4 45.5 47.4s45.5-17.5 45.5-47.4z"/>
   </g>
  </mask>
 </defs>
 <path class="home-kv__logo-clip" transform="translate(22.996 189.62)" d="m0 0h500v180h-500z" mask="url(#logo-mask)" data-original="M0,180h13.9h69.4h83.3H250h83.3h83.3h69.4H500l0,0h-13.9c-13.9,0-41.7,0-69.4,0 c-27.8,0-55.6,0-83.3,0c-27.8,0-55.6,0-83.3,0s-55.6,0-83.3,0s-55.6,0-83.3,0s-55.6,0-69.4,0H0L0,180z"/>
 <g transform="translate(-7.839 -43.338)" fill="#59f" aria-label="QMS">
  <g aria-label="QMS">
   <path d="m21.674 48.503q-1.6602-1.6602-3.5049-1.6602-2.0291 0-3.6893 1.6602-2.3981 2.3981-2.3981 12.913 0 10.33 2.3981 12.728 1.6602 1.6602 3.5049 1.6602 2.0291 0 2.9515-0.92233l-2.9515-5.7184 2.5825-3.1359 2.5825 4.9806q0.92233-3.3204 0.92233-9.5922 0-10.515-2.3981-12.913zm2.5825-2.767q4.0583 4.0583 4.0583 15.68 0 10.146-2.767 13.835l1.4757 2.9515-2.9515 3.1359-1.6602-3.3204q-1.8447 1.2913-4.4272 1.2913-3.6893 0-6.0874-2.3981-4.0583-4.0583-4.0583-15.495 0-11.621 4.0583-15.68 2.3981-2.3981 6.2718-2.3981 3.6893 0 6.0874 2.3981z"/>
   <path d="m35.409 52.376v26.932h-3.6893v-35.971h5.9029l3.8738 23.427h0.36893l3.8738-23.427h5.9029v35.971h-3.6893v-26.932h-0.36893l-4.4272 26.932h-2.9515l-4.4272-26.932z"/>
   <path d="m63.08 56.804q3.8738 3.3204 7.7476 5.534 4.2427 2.3981 4.2427 7.0097 0 4.6116-2.767 7.3786-2.5825 2.5825-7.1942 2.5825-4.4272 0-6.8252-2.3981-2.9515-2.9515-2.9515-7.0097v-1.8447h4.2427v1.6602q0 2.9515 1.4757 4.4272 1.4757 1.4757 3.6893 1.4757 2.9515 0 4.4272-1.4757 1.6602-1.6602 1.6602-4.2427 0-2.767-2.5825-4.4272-4.6116-2.9515-8.6699-6.2718-2.9515-2.3981-3.1359-6.4563-0.18447-4.0583 2.767-6.8252 2.767-2.5825 6.0874-2.5825 4.0583 0 6.2718 2.2136 2.767 2.767 2.5825 7.7476h-4.2427q0.36893-3.1359-1.4757-4.9806-1.2913-1.2913-3.1359-1.2913t-3.1359 1.2913q-1.6602 1.6602-1.6602 3.8738 0 2.3981 2.5825 4.6117z"/>
  </g>
 </g>
</svg>
