<svg class="home-kv__logo-svg" width="95.156" height="38" xmlns="http://www.w3.org/2000/svg"><defs><mask id="a"><g class="home-kv__logo-svg-group"><path class="home-kv__logo-path" d="M94.2 80.1 78.4 91.3c-6.9-12.7-16.8-19.2-29-19.2-11.5 0-20.8 5.3-20.8 16.1 0 9.8 8.9 14.9 28 18.7 10.3 2.2 16.8 3.6 24.7 7.2 11.3 4.8 18.7 12.9 18.7 25.6 0 12-4.6 21.6-13.4 28.5-8.9 6.9-19.9 10.3-33.1 10.3-24.9 0-45-12.7-52.5-35l19.2-7.2c5.5 15.1 17 24 33.3 24 14.6 0 25.6-6.5 25.6-18.7 0-9.6-9.1-12.9-31.1-17.7-24.7-5-39-13.7-39-35C9 78.4 13.1 70 21 63.5s17.7-9.6 29.2-9.6c19.8 0 34.4 8.7 44 26.2zM230 176.6h-16.3l-2.9-17c-7.7 11.3-24.7 18.9-42.6 18.9-21.3 0-37.4-12.9-37.4-36.7 0-26.1 20.4-39.5 54.6-39.5h24.4V97c0-17.5-11.5-24.9-27.8-24.9-13.7 0-24.7 8.4-28.5 20.6L135.8 88c5.5-20.8 24-34 46.2-34 29.7 0 47.9 14.6 47.9 46.5v76.1zm-58.7-16.3c9.6 0 18.4-3.1 26.4-9.1 8.1-6.2 12.2-15.6 12.2-27.8v-3.8h-26.4c-20.4 0-32.1 8.6-32.1 22.3 0 11.5 7.7 18.4 19.9 18.4zM271.6 73.6V55.9h57v103h41.7v17.7H266.8v-17.7h41.7V73.6zM333.6 18c0 9.1-7.4 16.5-16.5 16.5s-16.5-7.4-16.5-16.5S308 1.5 317.1 1.5s16.5 7.4 16.5 16.5zM478.9 131.1c0 19.4-8.4 29.2-25.4 29.2s-25.4-9.8-25.4-29.2V8.9h-70.9v18.2H408v104c0 29.9 17.5 47.4 45.5 47.4S499 161 499 131.1z"/></g></mask></defs><path class="home-kv__logo-clip" transform="translate(-7.194 220.71)" d="M0 0h500v180H0z" mask="url(#a)" data-original="M0,180h13.9h69.4h83.3H250h83.3h83.3h69.4H500l0,0h-13.9c-13.9,0-41.7,0-69.4,0 c-27.8,0-55.6,0-83.3,0c-27.8,0-55.6,0-83.3,0s-55.6,0-83.3,0s-55.6,0-83.3,0s-55.6,0-69.4,0H0L0,180z"/><g fill="#3A587F" stroke-width="1.579"><path d="M-6.222-82.948h-8.155l-5.534-37.864-5.825 37.864h-8.156l-13.689-59.417h8.156l9.029 40.777 5.825-40.777h9.03l6.116 40.777 8.738-40.777h8.155zM27.169-135.37v17.184h22.427v6.99H27.169v21.262h26.505v6.99H19.596v-59.416h32.621v6.99zM64.803-82.656v-60h18.932q8.447 0 13.107 4.66 3.786 3.787 3.786 10.194 0 7.864-4.951 11.942 6.99 4.952 6.99 15.146 0 8.738-4.66 13.398t-14.272 4.66zm27.67-44.854q0-3.204-2.039-5.243-2.912-2.912-7.864-2.912H72.376v16.31h9.32q5.826 0 8.738-2.912 2.04-2.039 2.04-5.243zm2.039 26.505q0-5.243-2.622-7.864-3.495-3.495-9.903-3.495h-9.611v22.718h9.903q6.699 0 9.611-2.913 2.622-2.621 2.622-8.446z" style="white-space:pre" transform="translate(30.134 90.348) scale(.63333)"/></g></svg>