<?xml version="1.0" encoding="UTF-8"?>
<svg class="home-kv__logo-svg" width="95.156" height="38" version="1.1" viewBox="0 0 95.156 38" xmlns="http://www.w3.org/2000/svg">
 <defs>
  <mask id="logo-mask">
   <g class="home-kv__logo-svg-group">
    <path class="home-kv__logo-path" d="m94.2 80.1-15.8 11.2c-6.9-12.7-16.8-19.2-29-19.2-11.5 0-20.8 5.3-20.8 16.1 0 9.8 8.9 14.9 28 18.7 10.3 2.2 16.8 3.6 24.7 7.2 11.3 4.8 18.7 12.9 18.7 25.6 0 12-4.6 21.6-13.4 28.5-8.9 6.9-19.9 10.3-33.1 10.3-24.9 0-45-12.7-52.5-35l19.2-7.2c5.5 15.1 17 24 33.3 24 14.6 0 25.6-6.5 25.6-18.7 0-9.6-9.1-12.9-31.1-17.7-24.7-5-39-13.7-39-35 0-10.5 4.1-18.9 12-25.4s17.7-9.6 29.2-9.6c19.8 0 34.4 8.7 44 26.2z"/>
    <path class="home-kv__logo-path" d="m230 176.6h-16.3l-2.9-17c-7.7 11.3-24.7 18.9-42.6 18.9-21.3 0-37.4-12.9-37.4-36.7 0-26.1 20.4-39.5 54.6-39.5h24.4v-5.3c0-17.5-11.5-24.9-27.8-24.9-13.7 0-24.7 8.4-28.5 20.6l-17.7-4.7c5.5-20.8 24-34 46.2-34 29.7 0 47.9 14.6 47.9 46.5v76.1zm-58.7-16.3c9.6 0 18.4-3.1 26.4-9.1 8.1-6.2 12.2-15.6 12.2-27.8v-3.8h-26.4c-20.4 0-32.1 8.6-32.1 22.3 0 11.5 7.7 18.4 19.9 18.4z"/>
    <path class="home-kv__logo-path" d="m271.6 73.6v-17.7h57v103h41.7v17.7h-103.5v-17.7h41.7v-85.3z"/>
    <path class="home-kv__logo-path" d="m333.6 18c0 9.1-7.4 16.5-16.5 16.5s-16.5-7.4-16.5-16.5 7.4-16.5 16.5-16.5 16.5 7.4 16.5 16.5z"/>
    <path class="home-kv__logo-path" d="m478.9 131.1c0 19.4-8.4 29.2-25.4 29.2s-25.4-9.8-25.4-29.2v-122.2h-70.9v18.2h50.8v104c0 29.9 17.5 47.4 45.5 47.4s45.5-17.5 45.5-47.4z"/>
   </g>
  </mask>
 </defs>
 <path class="home-kv__logo-clip" transform="translate(-7.1938 220.71)" d="m0 0h500v180h-500z" mask="url(#logo-mask)" data-original="M0,180h13.9h69.4h83.3H250h83.3h83.3h69.4H500l0,0h-13.9c-13.9,0-41.7,0-69.4,0 c-27.8,0-55.6,0-83.3,0c-27.8,0-55.6,0-83.3,0s-55.6,0-83.3,0s-55.6,0-83.3,0s-55.6,0-69.4,0H0L0,180z"/>
 <g transform="matrix(.63333 0 0 .63333 30.134 90.348)" fill="#3A587F" stroke-width="1.5789">
  <path d="m-6.2218-82.948h-8.1553l-5.534-37.864-5.8252 37.864h-8.1553l-13.689-59.417h8.1553l9.0291 40.777 5.8252-40.777h9.0291l6.1165 40.777 8.7379-40.777h8.1553z" style="white-space:pre"/>
  <path d="m27.169-135.37v17.184h22.427v6.9903h-22.427v21.262h26.505v6.9903h-34.078v-59.417h32.621v6.9903z" style="white-space:pre"/>
  <path d="m64.803-82.656v-60h18.932q8.4466 0 13.107 4.6602 3.7864 3.7864 3.7864 10.194 0 7.8641-4.9515 11.942 6.9903 4.9514 6.9903 15.146 0 8.7379-4.6602 13.398-4.6602 4.6602-14.272 4.6602zm27.67-44.854q0-3.2039-2.0388-5.2427-2.9126-2.9126-7.8641-2.9126h-10.194v16.311h9.3204q5.8252 0 8.7379-2.9126 2.0388-2.0388 2.0388-5.2427zm2.0388 26.505q0-5.2427-2.6214-7.8641-3.4951-3.4952-9.9029-3.4952h-9.6116v22.718h9.9029q6.699 0 9.6116-2.9126 2.6214-2.6214 2.6214-8.4466z" style="white-space:pre"/>
 </g>
</svg>
